HIERARCHY
ROOT Hips
{
	OFFSET -0.001795 -0.223333 0.028219
	CHANNELS 6 Xposition Yposition Zposition Zrotation Yrotation Xrotation 
	JOINT LeftUpLeg
	{
		OFFSET 0.069520 -0.091406 -0.006815
		CHANNELS 3 Zrotation Yrotation Xrotation
		JOINT LeftLeg
		{
			OFFSET 0.034277 -0.375199 -0.004496
			CHANNELS 3 Zrotation Yrotation Xrotation
			JOINT LeftFoot
			{
				OFFSET -0.013596 -0.397961 -0.043693
				CHANNELS 3 Zrotation Yrotation Xrotation
				JOINT LeftToe
				{
					OFFSET 0.026358 -0.055791 0.119288
					CHANNELS 3 Zrotation Yrotation Xrotation
					End Site
					{
						OFFSET 0.000000 0.000000 0.000000
					}
				}
			}
		}
	}
	JOINT RightUpLeg
	{
		OFFSET -0.067670 -0.090522 -0.004320
		CHANNELS 3 Zrotation Yrotation Xrotation
		JOINT RightLeg
		{
			OFFSET -0.038290 -0.382569 -0.008850
			CHANNELS 3 Zrotation Yrotation Xrotation
			JOINT RightFoot
			{
				OFFSET 0.015774 -0.398415 -0.042312
				CHANNELS 3 Zrotation Yrotation Xrotation
				JOINT RightToe
				{
					OFFSET -0.025372 -0.048144 0.123348
					CHANNELS 3 Zrotation Yrotation Xrotation
					End Site
					{
						OFFSET 0.000000 0.000000 0.000000
					}
				}
			}
		}
	}
	JOINT Spine
	{
		OFFSET -0.002533 0.108963 -0.026696
		CHANNELS 3 Zrotation Yrotation Xrotation
		JOINT Spine1
		{
			OFFSET 0.005487 0.135180 0.001092
			CHANNELS 3 Zrotation Yrotation Xrotation
			JOINT Spine2
			{
				OFFSET 0.001457 0.052922 0.025425
				CHANNELS 3 Zrotation Yrotation Xrotation
				JOINT Neck
				{
					OFFSET -0.002778 0.213870 -0.042857
					CHANNELS 3 Zrotation Yrotation Xrotation
					JOINT Head
					{
						OFFSET 0.005152 0.064970 0.051349
						CHANNELS 3 Zrotation Yrotation Xrotation
						End Site
						{
							OFFSET 0.000000 0.000000 0.000000
						}
					}
				}
				JOINT LeftShoulder
				{
					OFFSET 0.078845 0.121749 -0.034090
					CHANNELS 3 Zrotation Yrotation Xrotation
					JOINT LeftArm
					{
						OFFSET 0.090977 0.030469 -0.008868
						CHANNELS 3 Zrotation Yrotation Xrotation
						JOINT LeftForeArm
						{
							OFFSET 0.259612 -0.012772 -0.027456
							CHANNELS 3 Zrotation Yrotation Xrotation
							JOINT LeftHand
							{
								OFFSET 0.249234 0.008986 -0.001171
								CHANNELS 3 Zrotation Yrotation Xrotation
								End Site
								{
									OFFSET 0.000000 0.000000 0.000000
								}
							}
						}
					}
				}
				JOINT RightShoulder
				{
					OFFSET -0.081759 0.118833 -0.038615
					CHANNELS 3 Zrotation Yrotation Xrotation
					JOINT RightArm
					{
						OFFSET -0.096012 0.032551 -0.009143
						CHANNELS 3 Zrotation Yrotation Xrotation
						JOINT RightForeArm
						{
							OFFSET -0.253742 -0.013329 -0.021401
							CHANNELS 3 Zrotation Yrotation Xrotation
							JOINT RightHand
							{
								OFFSET -0.255298 0.007772 -0.005559
								CHANNELS 3 Zrotation Yrotation Xrotation
								End Site
								{
									OFFSET 0.000000 0.000000 0.000000
								}
							}
						}
					}
				}
			}
		}
	}
}
MOTION
Frames: 16
Frame Time: 0.050000
0.000000 0.956674 0.000000 -0.452300 -12.069444 5.709234 5.080200 0.039121 0.703784 -1.359914 0.416812 -8.677357 7.296147 15.323011 17.827156 0.000000 0.000000 0.000000 -4.800163 0.337720 -0.598231 4.105425 -0.292720 -5.478631 -5.424558 -16.322628 13.619213 0.000000 0.000000 0.000000 5.460699 -0.184643 0.623747 -5.866577 1.810038 -25.601162 -0.630957 9.974118 29.402568 7.458451 -2.548963 -24.674154 0.000000 0.000000 0.000000 2.516447 3.171739 -0.974086 -25.731818 -5.639116 -3.273694 15.734791 -21.745389 -2.181616 0.000000 0.000000 0.000000 9.570360 -12.387857 -5.924322 30.371779 11.018278 -2.256881 -5.593955 23.672418 -0.051964 0.000000 0.000000 0.000000 
-0.000821 0.955261 0.001572 -0.783849 -12.227691 6.169673 5.162810 0.076111 1.450453 -0.892471 0.459354 -10.209462 6.921663 14.746260 17.048407 0.000000 0.000000 0.000000 -3.653447 0.278008 -0.768529 2.951325 -0.263842 -6.210500 -5.956323 -17.251199 13.911061 0.000000 0.000000 0.000000 5.855024 -0.124827 -0.184456 -5.792082 1.786231 -25.728719 -1.130940 10.015405 29.743735 6.881353 -2.322130 -23.923933 0.000000 0.000000 0.000000 3.276377 3.096924 -0.900942 -25.541102 -5.707903 -3.276836 14.940642 -21.888234 -2.039592 0.000000 0.000000 0.000000 9.556717 -12.161303 -5.819643 30.391912 9.472588 -2.611715 -4.871418 25.637764 0.073454 0.000000 0.000000 0.000000 
-0.001765 0.954053 0.002443 -0.503835 -12.018607 6.042716 5.733919 0.033870 0.683391 -1.382839 0.382376 -7.732649 6.506277 14.117308 16.357017 0.000000 0.000000 0.000000 -3.705152 0.315874 -1.388596 3.775101 -0.284985 -5.284666 -6.183859 -17.417418 12.705708 0.000000 0.000000 0.000000 5.643363 -0.121756 -0.158683 -5.272760 1.670213 -25.447369 -1.657400 10.592642 30.534986 8.479846 -3.203703 -24.082649 0.000000 0.000000 0.000000 4.253664 3.029798 -0.788705 -25.760969 -5.671714 -3.346886 12.164837 -23.264002 -1.665781 0.000000 0.000000 0.000000 11.349848 -12.797991 -6.330746 30.105954 10.389795 -2.507117 -7.261750 24.946155 -0.335139 0.000000 0.000000 0.000000 
-0.003033 0.953990 0.002949 -0.320716 -12.454394 6.439891 5.708209 0.027518 0.565619 -1.433400 0.388523 -7.760146 6.653355 14.289158 16.666335 0.000000 0.000000 0.000000 -3.721298 0.320948 -1.357415 4.210607 -0.286220 -5.549648 -6.903975 -18.677957 13.177282 0.000000 0.000000 0.000000 5.628442 -0.082474 -0.635557 -5.416594 1.703479 -26.118020 -2.070058 10.336925 31.493577 7.961790 -2.988925 -24.214048 0.000000 0.000000 0.000000 4.601044 2.494735 -0.638073 -25.276356 -4.726109 -3.489851 10.890107 -23.483584 -1.393044 0.000000 0.000000 0.000000 12.159804 -12.323412 -6.292197 29.712445 10.454378 -2.532727 -7.716405 25.775603 -0.486541 0.000000 0.000000 0.000000 
-0.004441 0.953493 0.002935 -0.382926 -12.577803 6.218527 5.961651 0.024755 0.339552 -1.364339 0.345944 -6.649554 6.541287 14.084559 15.761859 0.000000 0.000000 0.000000 -3.442565 0.313570 -1.524993 4.128473 -0.288723 -4.876412 -6.647073 -18.224973 12.786883 0.000000 0.000000 0.000000 5.124165 -0.112757 -0.173840 -4.878499 1.573784 -25.513641 -2.008904 10.175954 30.750169 8.266501 -3.340949 -23.224697 0.000000 0.000000 0.000000 4.487028 1.962290 -0.476522 -25.122025 -3.817812 -3.579515 8.061716 -26.475771 -0.938809 0.000000 0.000000 0.000000 12.302082 -11.697710 -6.039207 29.727739 10.392097 -2.482329 -7.356403 26.586146 -0.457302 0.000000 0.000000 0.000000 
-0.005640 0.953372 0.002422 -0.344869 -12.446583 6.436107 6.009559 -0.013289 -0.374246 -1.369067 0.317178 -5.764312 6.817536 14.515168 15.831176 0.000000 0.000000 0.000000 -3.550552 0.352973 -2.045960 4.292587 -0.298603 -4.411747 -6.739505 -18.299215 12.227045 0.000000 0.000000 0.000000 4.888572 -0.129362 0.020912 -4.950422 1.592534 -25.677337 -2.082816 9.572231 30.961592 8.052489 -3.257272 -23.482447 0.000000 0.000000 0.000000 4.986888 1.994853 -0.488094 -25.961637 -2.938621 -3.834921 5.966109 -30.865481 -0.493352 0.000000 0.000000 0.000000 12.264722 -11.363083 -5.938577 30.506609 10.653360 -2.453376 -5.999359 28.802882 -0.217752 0.000000 0.000000 0.000000 
-0.006405 0.953110 0.001387 -0.399642 -12.485104 6.590032 6.216503 -0.043862 -1.130669 -1.521155 0.307208 -4.966695 6.942891 14.690388 15.778573 0.000000 0.000000 0.000000 -3.268834 0.347830 -2.175486 4.413135 -0.299406 -4.572093 -6.739685 -18.288803 12.125622 0.000000 0.000000 0.000000 4.863449 -0.163105 0.388999 -4.930061 1.587260 -25.314223 -2.218581 9.698177 30.504731 8.251853 -3.380806 -23.289410 0.000000 0.000000 0.000000 4.497271 1.736804 -0.419889 -26.799349 -2.089693 -4.074676 4.491523 -36.887712 -0.121050 0.000000 0.000000 0.000000 13.038159 -11.078359 -5.912107 31.251854 10.659402 -2.470618 -3.625488 31.325978 0.388523 0.000000 0.000000 0.000000 
-0.006845 0.953385 0.000017 -0.402296 -12.264704 6.840366 6.340719 -0.090657 -2.260287 -1.707927 0.290919 -3.600211 7.236228 15.148369 15.604172 0.000000 0.000000 0.000000 -2.672768 0.369025 -2.884857 3.970259 -0.292820 -3.718365 -6.771236 -18.198956 11.100559 0.000000 0.000000 0.000000 4.978707 -0.195999 0.695432 -5.061201 1.615853 -24.894883 -2.105702 9.482512 30.530533 8.567402 -3.700666 -22.620271 0.000000 0.000000 0.000000 3.782556 1.264294 -0.304933 -28.964692 -1.028875 -4.600238 2.059958 -43.509058 0.884986 0.000000 0.000000 0.000000 13.287335 -10.420037 -5.628521 33.669415 10.353336 -2.660859 -1.292367 35.034284 1.183127 0.000000 0.000000 0.000000 
-0.007182 0.953341 -0.001537 -0.588275 -12.160357 7.124915 6.540960 -0.121426 -3.214116 -2.038152 0.305116 -2.481728 7.538462 15.614260 15.202497 0.000000 0.000000 0.000000 -2.401452 0.388068 -3.277460 4.111178 -0.298685 -3.581701 -6.860711 -18.358508 11.098937 0.000000 0.000000 0.000000 5.378102 -0.221900 0.816015 -4.926486 1.580410 -24.258080 -2.118045 10.156156 30.628316 8.843937 -3.710055 -22.927809 0.000000 0.000000 0.000000 2.885540 0.730227 -0.148017 -31.365009 -1.013910 -4.989478 -1.925630 -49.596702 2.802116 0.000000 0.000000 0.000000 13.975952 -9.864162 -5.328221 36.236203 10.638093 -2.762958 1.227854 37.321062 2.234473 0.000000 0.000000 0.000000 
-0.007598 0.953025 -0.002852 -0.555816 -11.625341 7.188438 6.825438 -0.164382 -4.860095 -2.964851 0.397401 0.215326 7.974762 16.350612 14.286546 0.000000 0.000000 0.000000 -2.116875 0.440480 -4.077459 3.980199 -0.300156 -2.532536 -6.877409 -18.244237 10.154409 0.000000 0.000000 0.000000 5.607185 -0.293234 1.516181 -5.214827 1.656319 -23.732122 -1.868949 10.058372 30.652564 9.397052 -3.940020 -23.397585 0.000000 0.000000 0.000000 1.982002 -0.156593 0.113014 -34.573570 -0.357314 -5.655601 -8.574726 -55.952479 6.840032 0.000000 0.000000 0.000000 13.952172 -9.018122 -4.848295 39.764477 10.631640 -2.903355 3.103825 40.164244 3.241449 0.000000 0.000000 0.000000 
-0.008225 0.951851 -0.003608 -0.558815 -11.121440 7.063823 7.172530 -0.194887 -6.944304 -3.884550 0.566726 3.969339 8.150399 16.711341 12.473282 0.000000 0.000000 0.000000 -1.998052 0.432636 -4.041103 4.064816 -0.309270 -1.813337 -6.770445 -17.872514 9.136366 0.000000 0.000000 0.000000 5.868605 -0.405089 2.663928 -5.414193 1.716536 -23.088300 -1.559451 10.613375 30.685973 9.422066 -3.707365 -23.955599 0.000000 0.000000 0.000000 0.535454 -0.852951 0.283903 -37.759951 0.107295 -6.325952 -21.347207 -61.486912 15.291501 0.000000 0.000000 0.000000 14.721287 -8.041340 -4.266453 42.788172 10.634803 -3.067448 6.171888 42.722644 4.906041 0.000000 0.000000 0.000000 
-0.009165 0.949756 -0.003425 -0.489536 -10.149570 6.655698 7.302146 -0.234028 -9.534193 -5.070507 0.923016 9.127508 8.550308 17.486461 10.703939 0.000000 0.000000 0.000000 -1.843121 0.416807 -3.936333 4.343030 -0.335803 -0.726832 -7.587543 -19.164767 8.136361 0.000000 0.000000 0.000000 6.108239 -0.574188 4.500646 -5.758290 1.820080 -23.106799 -1.137063 10.457408 30.979771 10.032495 -3.768297 -25.440127 0.000000 0.000000 0.000000 -0.528694 -1.284755 0.371709 -41.710688 0.778649 -7.249381 -38.918960 -64.648237 28.096188 0.000000 0.000000 0.000000 14.923986 -7.030906 -3.658266 46.217136 11.029264 -3.054952 10.264301 45.334562 7.187450 0.000000 0.000000 0.000000 
-0.010378 0.947197 -0.001621 -0.487485 -9.029948 6.553605 8.053352 -0.200975 -13.721173 -7.478029 1.843565 15.755594 9.462771 19.095925 9.561433 0.000000 0.000000 0.000000 -1.598579 0.414381 -3.996548 4.214290 -0.337543 -0.178448 -8.122779 -19.979014 6.729653 0.000000 0.000000 0.000000 5.863698 -0.670153 5.780286 -5.271931 1.720153 -22.801971 -0.555461 11.434339 31.021936 10.269476 -3.410641 -26.654919 0.000000 0.000000 0.000000 -1.974925 -2.009328 0.485396 -45.048496 1.573179 -8.198841 -57.302977 -63.492640 40.023090 0.000000 0.000000 0.000000 15.476928 -5.639352 -2.625021 49.509610 11.671619 -2.909011 13.134098 47.631580 9.382221 0.000000 0.000000 0.000000 
-0.011586 0.945300 0.002081 -0.683069 -8.211071 6.906610 9.659661 0.044861 -18.220444 -10.196405 3.183651 22.029882 10.107483 20.232452 8.708342 0.000000 0.000000 0.000000 -1.301955 0.487530 -4.879485 4.804488 -0.389866 1.588593 -9.287827 -22.156832 6.276478 0.000000 0.000000 0.000000 6.018235 -0.809943 7.156094 -5.393580 1.754191 -23.350118 0.493679 12.412953 31.314206 10.239829 -2.888762 -28.062759 0.000000 0.000000 0.000000 -2.823246 -2.441101 0.496484 -48.704166 1.966747 -9.133741 -68.754689 -60.599408 45.980430 0.000000 0.000000 0.000000 14.392410 -5.236402 -2.085375 53.413788 13.177783 -2.151715 17.399676 47.880267 11.853031 0.000000 0.000000 0.000000 
-0.012590 0.944546 0.008390 -0.471853 -7.984964 7.036121 10.068333 0.197368 -21.833923 -11.398461 3.768266 23.766742 10.451649 20.748621 9.179695 0.000000 0.000000 0.000000 -1.695749 0.496279 -4.910028 5.221065 -0.431265 1.978518 -9.440283 -22.447475 6.292957 0.000000 0.000000 0.000000 6.110699 -0.899051 8.071648 -5.880028 1.876727 -23.289241 1.420755 14.636907 31.347435 10.155909 -2.323616 -28.609630 0.000000 0.000000 0.000000 -4.362176 -3.278510 0.479925 -50.299497 2.406585 -9.684278 -75.166416 -57.127104 46.881828 0.000000 0.000000 0.000000 14.952192 -3.949366 -0.976674 55.598583 15.384927 -0.992438 18.120121 50.103267 13.470192 0.000000 0.000000 0.000000 
-0.013428 0.943664 0.017395 -0.094955 -6.957941 6.769285 9.787594 0.154745 -24.827076 -11.399003 3.376449 21.387988 11.462795 22.284614 10.665327 0.000000 0.000000 0.000000 -2.002742 0.438904 -4.198792 5.599947 -0.485659 2.315892 -9.937884 -23.378609 6.051451 0.000000 0.000000 0.000000 5.657494 -1.018005 10.094031 -6.022040 1.908113 -24.492452 2.462971 15.948511 32.141037 10.778635 -2.058526 -30.312810 0.000000 0.000000 0.000000 -4.977499 -4.190327 0.570113 -52.404752 2.829248 -10.423538 -78.048323 -54.744095 46.124152 0.000000 0.000000 0.000000 14.247740 -2.446771 0.159190 58.041065 18.369508 0.850556 18.750097 52.634370 15.228278 0.000000 0.000000 0.000000 
